<svg width="110" height="110" viewBox="0 0 110 110" fill="none" xmlns="http://www.w3.org/2000/svg">
<path d="M45.7088 45.552H63.9735V41.8197H45.7088V45.552ZM65.7206 48.9667H44.0412H42.3735V47.2991V40.152V38.4844H44.0412H65.7206H67.3882V40.152V47.2991V48.9667H65.7206Z" fill="#0B57A4"/>
<path d="M29.7472 70.8049C28.7943 70.8049 28.0796 70.0902 28.0796 69.1372C28.0796 68.1843 28.8737 67.4696 29.7472 67.4696C31.0972 67.4696 32.4472 67.1519 33.6384 66.5961C34.8296 66.0402 35.9413 65.246 36.8149 64.1343C37.4502 63.4196 38.4825 63.3402 39.1972 63.896C39.9119 64.4519 39.9914 65.5637 39.4355 66.2784C38.2443 67.7078 36.7355 68.8196 35.0678 69.6137C33.4002 70.4078 31.5737 70.8049 29.7472 70.8049Z" fill="#0B57A4"/>
<path d="M46.5027 67.3877C47.4557 67.3877 48.1704 68.1818 48.1704 69.0553C48.1704 70.0083 47.4557 70.723 46.5027 70.723C44.6763 70.723 42.8498 70.3259 41.1822 69.5318C39.5145 68.7377 38.0057 67.6259 36.8145 66.1965C36.2586 65.4818 36.338 64.37 37.0527 63.8142C37.7674 63.1789 38.8792 63.2583 39.4351 64.0524C40.3086 65.0847 41.4204 65.8789 42.6116 66.5142C43.8027 67.1494 45.1527 67.3877 46.5027 67.3877Z" fill="#0B57A4"/>
<path d="M46.5031 70.8049C45.5502 70.8049 44.8354 70.0902 44.8354 69.1372C44.8354 68.1843 45.6296 67.4696 46.5031 67.4696C47.8531 67.4696 49.2031 67.1519 50.3943 66.5961C51.5854 66.0402 52.6972 65.246 53.5707 64.1343C54.206 63.4196 55.2384 63.3402 55.9531 63.896C56.6678 64.4519 56.7472 65.5637 56.1913 66.2784C55.0002 67.7078 53.4913 68.8196 51.8237 69.6137C50.156 70.4078 48.3296 70.8049 46.5031 70.8049Z" fill="#0B57A4"/>
<path d="M63.2589 70.8049C62.306 70.8049 61.5913 70.0902 61.5913 69.1372C61.5913 68.1843 62.3854 67.4696 63.2589 67.4696C64.6089 67.4696 65.959 67.1519 67.1501 66.5961C68.3413 66.0402 69.4531 65.246 70.3266 64.1343C70.9619 63.4196 71.9943 63.3402 72.709 63.896C73.4237 64.4519 73.5031 65.5637 72.9472 66.2784C71.756 67.7078 70.2472 68.8196 68.5795 69.6137C66.9119 70.4078 65.0854 70.8049 63.2589 70.8049Z" fill="#0B57A4"/>
<path d="M63.2586 67.3877C64.2115 67.3877 64.9263 68.1818 64.9263 69.0553C64.9263 70.0083 64.2115 70.723 63.2586 70.723C61.4321 70.723 59.6057 70.3259 57.938 69.5318C56.2704 68.7377 54.7615 67.6259 53.5704 66.1965C53.0145 65.4818 53.0939 64.37 53.8086 63.8142C54.5233 63.1789 55.6351 63.2583 56.191 64.0524C57.0645 65.0847 58.1762 65.8789 59.3674 66.5142C60.5586 67.1494 61.9086 67.3877 63.2586 67.3877Z" fill="#0B57A4"/>
<path d="M80.0149 67.3877C80.9679 67.3877 81.6826 68.1818 81.6826 69.0553C81.6826 70.0083 80.9679 70.723 80.0149 70.723C78.1885 70.723 76.362 70.3259 74.6944 69.5318C73.0267 68.7377 71.5179 67.6259 70.3267 66.1965C69.7708 65.4818 69.8502 64.37 70.5649 63.8142C71.2796 63.1789 72.3914 63.2583 72.9473 64.0524C73.8208 65.0847 74.9326 65.8789 76.1238 66.5142C77.3149 67.1494 78.6649 67.3877 80.0149 67.3877Z" fill="#0B57A4"/>
<path d="M29.7472 79.8556C28.7943 79.8556 28.0796 79.0615 28.0796 78.188C28.0796 77.2351 28.8737 76.5204 29.7472 76.5204C31.0972 76.5204 32.4472 76.2027 33.6384 75.6468C34.8296 75.0909 35.9413 74.2174 36.8149 73.1851C37.4502 72.4704 38.4825 72.391 39.1972 72.9468C39.9119 73.5821 39.9914 74.6145 39.4355 75.3292C38.2443 76.7586 36.7355 77.9498 35.0678 78.6645C33.4002 79.4586 31.5737 79.8556 29.7472 79.8556Z" fill="#0B57A4"/>
<path d="M46.5027 76.5223C47.4557 76.5223 48.1704 77.237 48.1704 78.19C48.1704 79.1429 47.4557 79.8576 46.5027 79.8576C44.6763 79.8576 42.8498 79.4605 41.1822 78.6664C39.5145 77.8723 38.0057 76.7605 36.8145 75.3311C36.2586 74.6164 36.338 73.5841 37.0527 72.9488C37.7674 72.3135 38.8792 72.4723 39.4351 73.187C40.3086 74.2194 41.4204 75.0929 42.6116 75.6488C43.8027 76.2047 45.1527 76.5223 46.5027 76.5223Z" fill="#0B57A4"/>
<path d="M46.5031 79.8556C45.5502 79.8556 44.8354 79.0615 44.8354 78.188C44.8354 77.2351 45.6296 76.5204 46.5031 76.5204C47.8531 76.5204 49.2031 76.2027 50.3943 75.6468C51.5854 75.0909 52.6972 74.2174 53.5707 73.1851C54.206 72.4704 55.2384 72.391 55.9531 72.9468C56.6678 73.5821 56.7472 74.6145 56.1913 75.3292C55.0002 76.7586 53.4913 77.9498 51.8237 78.6645C50.156 79.4586 48.3296 79.8556 46.5031 79.8556Z" fill="#0B57A4"/>
<path d="M63.2589 79.8556C62.306 79.8556 61.5913 79.0615 61.5913 78.188C61.5913 77.2351 62.3854 76.5204 63.2589 76.5204C64.6089 76.5204 65.959 76.2027 67.1501 75.6468C68.3413 75.0909 69.4531 74.2174 70.3266 73.1851C70.9619 72.4704 71.9943 72.391 72.709 72.9468C73.4237 73.5821 73.5031 74.6145 72.9472 75.3292C71.756 76.7586 70.2472 77.9498 68.5795 78.6645C66.9119 79.4586 65.0854 79.8556 63.2589 79.8556Z" fill="#0B57A4"/>
<path d="M63.2586 76.5223C64.2115 76.5223 64.9263 77.237 64.9263 78.19C64.9263 79.1429 64.2115 79.8576 63.2586 79.8576C61.4321 79.8576 59.6057 79.4605 57.938 78.6664C56.2704 77.8723 54.7615 76.7605 53.5704 75.3311C53.0145 74.6164 53.0939 73.5841 53.8086 72.9488C54.5233 72.3135 55.6351 72.4723 56.191 73.187C57.0645 74.2194 58.1762 75.0929 59.3674 75.6488C60.5586 76.2047 61.9086 76.5223 63.2586 76.5223Z" fill="#0B57A4"/>
<path d="M80.0149 76.5223C80.9679 76.5223 81.6826 77.237 81.6826 78.19C81.6826 79.1429 80.9679 79.8576 80.0149 79.8576C78.1885 79.8576 76.362 79.4605 74.6944 78.6664C73.0267 77.8723 71.5179 76.7605 70.3267 75.3311C69.7708 74.6164 69.8502 73.5841 70.5649 72.9488C71.2796 72.3135 72.3914 72.4723 72.9473 73.187C73.8208 74.2194 74.9326 75.0929 76.1238 75.6488C77.3149 76.2047 78.6649 76.5223 80.0149 76.5223Z" fill="#0B57A4"/>
<path d="M38.3234 30.3828H42.6117C43.4852 30.3828 44.2793 30.7799 44.8352 31.3358C45.3911 31.8916 45.7881 32.6858 45.7881 33.5593V53.8093C45.7881 54.6828 45.3911 55.4769 44.8352 56.0328C44.2793 56.5887 43.4852 56.9858 42.6117 56.9858H38.3234C37.4499 56.9858 36.6558 56.5887 36.0999 56.0328C35.544 55.4769 35.147 54.6828 35.147 53.8093V33.5593C35.147 32.6858 35.544 31.8916 36.0999 31.3358C36.6558 30.7799 37.4499 30.3828 38.3234 30.3828ZM42.294 33.7975H38.5617V53.4916H42.294V33.7975Z" fill="#ED4532"/>
<path d="M31.1765 34.2734H35.4647C36.3382 34.2734 37.1323 34.5911 37.6882 35.147C38.2441 35.7029 38.5618 36.497 38.5618 37.3705V49.997C38.5618 50.8705 38.2441 51.6646 37.6882 52.2205C37.1323 52.7764 36.3382 53.094 35.4647 53.094H31.1765C30.3029 53.094 29.5088 52.7764 28.9529 52.2205C28.3971 51.6646 28 50.8705 28 49.997V37.3705C28 36.497 28.3971 35.7029 28.9529 35.147C29.5088 34.5911 30.3029 34.2734 31.1765 34.2734ZM35.1471 37.6087H31.4147V49.6793H35.1471V37.6087Z" fill="#ED4532"/>
<path d="M71.1204 33.7975H67.388V53.4916H71.1204V33.7975ZM67.1498 30.3828H71.438C72.3116 30.3828 73.1057 30.7799 73.6616 31.3358C74.2174 31.8916 74.6145 32.6858 74.6145 33.5593V53.8093C74.6145 54.6828 74.2174 55.4769 73.6616 56.0328C73.1057 56.5887 72.3116 56.9858 71.438 56.9858H67.1498C66.2763 56.9858 65.4822 56.5887 64.9263 56.0328C64.3704 55.4769 64.0527 54.6828 64.0527 53.8093V33.5593C64.0527 32.6858 64.3704 31.8916 64.9263 31.3358C65.4822 30.7799 66.2763 30.3828 67.1498 30.3828Z" fill="#ED4532"/>
<path d="M78.2678 37.6087H74.5355V49.6793H78.2678V37.6087ZM74.2973 34.2734H78.5855C79.459 34.2734 80.2531 34.5911 80.809 35.147C81.3649 35.7029 81.6825 36.497 81.6825 37.3705V49.997C81.6825 50.8705 81.3649 51.6646 80.809 52.2205C80.2531 52.7764 79.459 53.094 78.5855 53.094H74.2973C73.4237 53.094 72.6296 52.7764 72.0737 52.2205C71.5178 51.6646 71.2002 50.8705 71.2002 49.997V37.3705C71.2002 36.497 71.5178 35.7029 72.0737 35.147C72.6296 34.5911 73.4237 34.2734 74.2973 34.2734Z" fill="#ED4532"/>
<circle cx="55" cy="55" r="43.5" stroke="#7E8A96"/>
<circle cx="55" cy="55" r="54" stroke="#0B56A6" stroke-width="2"/>
</svg>