<svg width="115" height="114" viewBox="0 0 115 114" fill="none" xmlns="http://www.w3.org/2000/svg">
<path d="M34.6665 91C28.4332 91 23.3898 96.1 23.3898 102.333C23.3898 108.567 28.4332 113.667 34.6665 113.667C40.8998 113.667 45.9998 108.567 45.9998 102.333C45.9998 96.1 40.8998 91 34.6665 91ZM91.3332 91C85.0998 91 80.0565 96.1 80.0565 102.333C80.0565 108.567 85.0998 113.667 91.3332 113.667C97.5665 113.667 102.666 108.567 102.666 102.333C102.666 96.1 97.5665 91 91.3332 91ZM83.1165 62.6667C87.3665 62.6667 91.1065 60.3434 93.0332 56.83L113.32 20.0534C115.416 16.3134 112.696 11.6667 108.39 11.6667H24.5232L19.1965 0.333374H0.666504V11.6667H11.9998L32.3998 54.6767L24.7498 68.5034C20.6132 76.0967 26.0532 85.3334 34.6665 85.3334H102.666V74H34.6665L40.8998 62.6667H83.1165ZM29.9065 23H98.7565L83.1165 51.3334H43.3365L29.9065 23Z" fill="#ffffff"/>
</svg>
